<?xml version="1.0" encoding="UTF-8"?>
<svg width="12px" height="13px" viewBox="0 0 12 13" version="1.1" xmlns="http://www.w3.org/2000/svg" xmlns:xlink="http://www.w3.org/1999/xlink">
    <!-- Generator: Sketch 49.3 (51167) - http://www.bohemiancoding.com/sketch -->
    <title>empty-star</title>
    <desc>Created with Sketch.</desc>
    <defs></defs>
    <g id="Page-1" stroke="none" stroke-width="1" fill="none" fill-rule="evenodd">
        <path d="M9.4,12.1 C9.3,12.1 9.2,12.1 9.1,12 L6,9.8 L2.9,12 C2.7,12.1 2.5,12.1 2.3,12 C2.1,11.9 2.1,11.6 2.1,11.4 L3.3,7.8 L0.2,5.6 C0,5.5 0,5.2 0,5 C0,4.8 0.3,4.7 0.5,4.7 L4.3,4.7 L5.5,1.1 C5.6,0.7 6.3,0.7 6.5,1.1 L7.7,4.7 L11.5,4.7 C11.7,4.7 11.9,4.8 12,5 C12.1,5.2 12,5.4 11.8,5.6 L8.7,7.8 L9.9,11.4 C10,11.6 9.9,11.8 9.7,12 C9.6,12.1 9.5,12.1 9.4,12.1 Z M4.2,7.2 C4.4,7.3 4.4,7.6 4.4,7.8 L3.6,10.3 L5.7,8.8 C5.9,8.7 6.1,8.7 6.3,8.8 L8.4,10.3 L7.6,7.8 C7.5,7.6 7.6,7.4 7.8,7.2 L9.9,5.7 L7.3,5.7 C7.1,5.7 6.9,5.6 6.8,5.4 L6,2.9 L5.2,5.4 C5.1,5.6 4.9,5.7 4.7,5.7 L2.1,5.7 L4.2,7.2 Z" id="empty-star" fill="#F1C40F" fill-rule="nonzero"></path>
    </g>
</svg>