<?xml version="1.0" encoding="UTF-8"?>
<svg width="13px" height="13px" viewBox="0 0 13 13" version="1.1" xmlns="http://www.w3.org/2000/svg" xmlns:xlink="http://www.w3.org/1999/xlink">
    <!-- Generator: Sketch 49.3 (51167) - http://www.bohemiancoding.com/sketch -->
    <title>full-star</title>
    <desc>Created with Sketch.</desc>
    <defs></defs>
    <g id="Page-1" stroke="none" stroke-width="1" fill="none" fill-rule="evenodd">
        <path d="M12.9,5.1 C12.8,4.9 12.6,4.8 12.4,4.8 L8.6,4.8 L7.4,1.2 C7.3,0.8 6.6,0.8 6.4,1.2 L5.2,4.8 L1.4,4.8 C1.2,4.8 1,4.9 0.9,5.1 C0.8,5.3 0.9,5.5 1.1,5.7 L4.2,7.9 L3,11.5 C2.9,11.7 3,11.9 3.2,12.1 C3.4,12.2 3.6,12.2 3.8,12.1 L6.9,9.9 L10,12.1 C10.1,12.2 10.2,12.2 10.3,12.2 C10.4,12.2 10.5,12.2 10.6,12.1 C10.8,12 10.9,11.8 10.8,11.5 L9.6,7.9 L12.7,5.7 C12.9,5.5 13,5.3 12.9,5.1 Z" id="full-star" fill="#F1C40F" fill-rule="nonzero"></path>
    </g>
</svg>